PathFileType	4	(X/Y/Z)	50_2_84_p0_0-312_filt_butterworth.trc
DataRate	CameraRate	NumFrames	NumMarkers	Units	OrigDataRate	OrigDataStartFrame	OrigNumFrames
42.0	42.0	6	27	m	42.0	78	312
Frame#	Time	RHip			RKnee			RAnkle			RBigToe			RSmallToe			RHeel			LHip			LKnee			LAnkle			LBigToe			LSmallToe			LHeel			Neck			Head			Nose			RShoulder			RElbow			RWrist			RThumb			RIndex			RPinky			LShoulder			LElbow			LWrist			LThumb			LIndex			LPinky			
		X1	Y1	Z1	X2	Y2	Z2	X3	Y3	Z3	X4	Y4	Z4	X5	Y5	Z5	X6	Y6	Z6	X7	Y7	Z7	X8	Y8	Z8	X9	Y9	Z9	X10	Y10	Z10	X11	Y11	Z11	X12	Y12	Z12	X13	Y13	Z13	X14	Y14	Z14	X15	Y15	Z15	X16	Y16	Z16	X17	Y17	Z17	X18	Y18	Z18	X19	Y19	Z19	X20	Y20	Z20	X21	Y21	Z21	X22	Y22	Z22	X23	Y23	Z23	X24	Y24	Z24	X25	Y25	Z25	X26	Y26	Z26	X27	Y27	Z27	
78	1.8571428571428568	0.2953614623342794	0.6865400024482996	0.5073352871995085	0.3089446918162282	0.85031176244708	0.9153668013264543	0.3114109189905452	0.9699847958629157	1.3399979667780006	0.26320341454740515	0.8607605273261418	1.4193271395953808	0.33622762242545134	0.8391555307491867	1.4107135419249408	0.2878087457522685	1.0903221044625286	1.3921454888800666	0.1164940628757477	0.6633273757639883	0.4844475407005864	0.09956386803243933	0.8557388819708627	0.9243200928445149	0.09660760455987549	1.021320268246416	1.3368604693486303	0.09995764998130963	0.8758117349116674	1.4040232967576303	0.043417077744764686	0.8940535082614558	1.389486279044506	0.11348908309317941	1.0754486324235892	1.4012730114955994	0.20536711870127894	0.6021956564776286	-0.025621246404989154	0.20834173240480386	0.5302094886212713	-0.24592371151584533	0.18844381850992306	0.4933336632985804	-0.11594338147465932	0.336716194961225	0.5579780044012465	0.07591492143139324	0.39425061897089664	0.6420500359001255	0.34917653843210184	0.3683811133498497	0.6432722842621379	0.6087029045536655	0.30375494724418217	0.5728391317203165	0.7083174229776787	0.3184002028025158	0.5790832102156293	0.7432660161408057	0.3550169269931925	0.6632928131452638	0.7410686892417513	0.07033639766043649	0.6260751226150526	0.05110029022068666	0.008830344791873529	0.3773426009580178	0.20303693052424904	0.13988868206471258	0.40516705119823804	0.014104166178527406	0.2245823254213062	0.3785538833420129	-0.07416706892732602	0.18071668822029846	0.4762243125247282	-0.1103524873906441	0.1586344763283498	0.42266780311032837	-0.06590053207467968
79	1.880952380952381	0.29707835944394767	0.6883882370223301	0.5072931990645135	0.3084253263804941	0.8485932598614853	0.9119704234574353	0.31145067125950565	0.9695753191603732	1.3382457690165563	0.26293024049575947	0.8599830858503499	1.4179384119264828	0.3362317786587874	0.8391032083549925	1.4107067059393803	0.28753832801395035	1.0907789895638498	1.3918484971030383	0.11757246326020507	0.6582590191025779	0.4838561673440075	0.09943263726715139	0.8557120954795414	0.9223050895656986	0.09609239996428882	1.0216558825477846	1.3391121848512497	0.09971619186049452	0.8763959944244872	1.4052191889876389	0.04342287964969054	0.894124618140068	1.3894911851134881	0.11359871701437188	1.0753216352000363	1.401212527937367	0.20211049621345478	0.5960550501889024	-0.025721106357631876	0.20624154879507156	0.5234811947530457	-0.24607575814571742	0.18584015663107495	0.47951056725579827	-0.11268976058477888	0.3355512732120506	0.5578313804102345	0.07677162765756068	0.39418960678599807	0.6428731081965742	0.34913540459128556	0.36845665583087284	0.6429788053665949	0.6086686678256028	0.3035896406558206	0.5728769417418871	0.7078234277671198	0.31846706131081054	0.5784339142906798	0.7432302600723917	0.3553408169973934	0.6631690799229298	0.7411280323354729	0.06852039594559804	0.6200598304396057	0.05203789913681711	0.009518004807153205	0.37494396748241876	0.20624124258932408	0.14025449683445196	0.4077367018331291	0.013639245856769712	0.22179330692114899	0.37353544055490984	-0.07414908669953202	0.1757614185356988	0.47758138117840315	-0.11264612320364689	0.15387497900850733	0.4226288473099878	-0.06654791570270253
80	1.9047619047619049	0.29668805036570045	0.6935312041079933	0.5073145500411114	0.30659119521377565	0.8417793583315258	0.9102483033718031	0.3114608239547798	0.9695465603552507	1.3385364811758418	0.2628800086803837	0.8597416922636039	1.4178167728824462	0.3362222535891593	0.8391350946558338	1.4107254511485803	0.2876588308738407	1.0905787484969387	1.3919994754755027	0.11749606954558457	0.6587001666352182	0.48475443611259195	0.09942543492113999	0.8554371792110125	0.9221685037198422	0.09556306113080212	1.0221745925595491	1.3406728922427678	0.09970947296243558	0.8765718717243136	1.4053032651569695	0.04339452754462312	0.8941501638632077	1.3894842074032103	0.11361710935649996	1.0754399927025184	1.4011066305030162	0.20074774564613518	0.5914676572687574	-0.026276512666054266	0.20621531666113577	0.5196306270481826	-0.24627727012191192	0.18461579104913683	0.4650446451578897	-0.1105057301069394	0.3355669062323393	0.5579728818988782	0.07850401525016953	0.3941366729025267	0.6426967231318091	0.34912970717518776	0.3683802018540665	0.6431158108981767	0.6087072488152074	0.3034320218452048	0.5737692032490637	0.7089483005252376	0.31817715890379555	0.5791266948464469	0.7442423946777479	0.35519328620018	0.6625843288688391	0.7411397070576028	0.0674371719405159	0.6164368444943188	0.052849145617805654	0.008277003733532028	0.3729207498982656	0.20938925590377055	0.13966180212521018	0.40619528619248474	0.013224569487062125	0.20989633202239671	0.37564829083402074	-0.07432353384411482	0.17184620339593434	0.4738811853206338	-0.11547678320945445	0.15320805806718266	0.42273256038377266	-0.06897949655661825
81	1.9285714285714288	0.2960549675582552	0.6969765604149909	0.5086555902399931	0.30501283976286925	0.8391849296098944	0.9142213640131128	0.3114395022621464	0.9699218220936108	1.341369935415521	0.262874045811936	0.8595375530019111	1.4177619768063192	0.33621832627173726	0.8393543150895985	1.4107880328239228	0.2887423978030709	1.084632638350322	1.3916911383101678	0.11732550836513192	0.6655056915451782	0.48906432371971187	0.09995524262966501	0.8554287063429697	0.9251004660387319	0.09564580688743105	1.0216868312753618	1.340665549893482	0.09975343223028486	0.876539547160737	1.4051297543774486	0.043385784797524155	0.8941503430959473	1.3894722113118698	0.11361753295788601	1.0758378856299906	1.4010064025251705	0.20179382696529763	0.5869856734955465	-0.024822550273771317	0.20604032582007012	0.5201402154348448	-0.24551094992838937	0.1834685665430903	0.45924688933739977	-0.1095762567373301	0.335772612199175	0.5581677860777139	0.08057200404818977	0.394061254561303	0.6422238581193775	0.3492015945579675	0.3684378790329933	0.6438069389934824	0.6087479591315977	0.3031419186667184	0.5747022030046968	0.7115200832509485	0.317128091779531	0.5841394752200004	0.7463917499861455	0.3531963288418232	0.6629243298291442	0.7409127740655617	0.06736538949239733	0.6162522931500067	0.053514922309132934	0.007174863196000391	0.3720248884402324	0.21212877066744917	0.136273717786528	0.3958643069984435	0.015534168581761312	0.1877921982314937	0.40234231754925665	-0.07572418110242557	0.1671217137706739	0.4609063726593521	-0.11194032548492566	0.15403804461783127	0.4202565937132758	-0.06974600697619508
82	1.9523809523809523	0.2982672722085003	0.6970728018650467	0.5129276939570376	0.30451789765251946	0.8414250570796815	0.9203103310590744	0.3111707560620107	0.9705214001735499	1.3445098832500422	0.2629024528337976	0.8594090148572453	1.4178148139098927	0.33615944381675666	0.8392414664993239	1.4107469258328893	0.29046043527062226	1.0746984133493875	1.3896183787946152	0.11719754865860367	0.6737217158172302	0.49647221687338206	0.10172557414418786	0.856054188919475	0.9286154146643706	0.09705187622341623	1.0166575315706927	1.3389945615300518	0.0997622965557386	0.876516043147318	1.405103212698632	0.043422927709526646	0.8941578797929312	1.3894604033823674	0.1136464343520367	1.0758695274485566	1.4009384496679642	0.20378933448509245	0.5814194955908966	-0.0210314289448094	0.20371602834929986	0.5207380711140861	-0.2437654314942655	0.17978810579804824	0.4617598037111128	-0.10894030368374623	0.3357052233574556	0.558210135680834	0.08234355730130151	0.3939570130580019	0.6420071144220326	0.3493053011489316	0.3680888287481008	0.6441702837872167	0.6086685228836359	0.30271739454623214	0.5744305299474328	0.7120882346932347	0.3153779817494859	0.591856210856305	0.7482484050050581	0.349991997137388	0.6668969247916822	0.7409582697855053	0.06744070455859587	0.6169416776217651	0.054879627891607705	0.006991690866876137	0.37034170540325023	0.21634788149602494	0.13159296830706807	0.387859263169158	0.020630569648418116	0.17073073100007033	0.44247259767605446	-0.0766237005088165	0.16265536473560438	0.44431947052332244	-0.10094500732264003	0.15426952248374404	0.41224646445898155	-0.0639037974479608
83	1.9761904761904765	0.30171257655483463	0.6956878036715164	0.5187837972525597	0.304821830152233	0.8428233474913672	0.9235708132300058	0.3107287742429624	0.9708948500048427	1.345061179614686	0.26317025091967666	0.8600586388610102	1.4192319083433378	0.33607269272291695	0.8381951378130251	1.410429678602006	0.29144337938786086	1.0684545079672434	1.386899292724993	0.11627161702824594	0.6761087322313151	0.5034897996999883	0.10553253895006656	0.856607671583733	0.9294539276011478	0.09922843662687829	1.0079748466065572	1.3365071965922815	0.09976351871636961	0.8765486946819546	1.405123887565149	0.04340395814574016	0.894302541976	1.3894409546588706	0.11363687752814669	1.0751270265866704	1.4008909817460433	0.20500462020550805	0.5780544457979793	-0.01754165579604717	0.20098211462962082	0.5166900034758748	-0.24170806054467336	0.17423100931325242	0.46144330864852096	-0.10725454067781633	0.3355930183934275	0.5580342689797935	0.08326803408251902	0.39390774672839135	0.641868359682687	0.349429430065731	0.36578762603155235	0.6435601887904984	0.6089906531201613	0.30239231562864854	0.5743950498395474	0.710295964017474	0.3131430853161086	0.5966224956863313	0.7488118430725936	0.348057285552399	0.6734072866098816	0.7424469776224438	0.06732302889261234	0.6174241816353293	0.057731874384578795	0.00708946013021997	0.36871501085884895	0.2238485452622891	0.1291117427192923	0.3860589380011278	0.025222311258885563	0.16720364779612906	0.46223836535178653	-0.07460171201448755	0.1609858393329225	0.43299044985234914	-0.09004620746338243	0.15386918858404644	0.40193232671079154	-0.05461096104894578
